<svg width="8" height="8" viewBox="0 0 8 8" fill="none" xmlns="http://www.w3.org/2000/svg">
<path d="M2.01 7.25679H0.605097V2.73259H2.01V7.25679ZM1.30679 2.11544C0.857551 2.11544 0.493164 1.74334 0.493164 1.2941C0.493164 1.07831 0.578886 0.871361 0.731471 0.718776C0.884056 0.56619 1.09101 0.480469 1.30679 0.480469C1.52258 0.480469 1.72953 0.56619 1.88212 0.718776C2.0347 0.871361 2.12042 1.07831 2.12042 1.2941C2.12042 1.74334 1.75589 2.11544 1.30679 2.11544ZM7.26812 7.25679H5.86624V5.05444C5.86624 4.52956 5.85565 3.85645 5.1358 3.85645C4.40537 3.85645 4.29343 4.4267 4.29343 5.01662V7.25679H2.89004V2.73259H4.23747V3.34973H4.25713C4.44469 2.99427 4.90286 2.61914 5.58641 2.61914C7.00826 2.61914 7.26963 3.55544 7.26963 4.77158V7.25679H7.26812Z" fill="white"/>
</svg>
