<svg width="8" height="8" viewBox="0 0 8 8" fill="none" xmlns="http://www.w3.org/2000/svg">
<path d="M3.99911 1.9489C5.13419 1.9489 6.04975 2.86467 6.04975 4C6.04975 5.13533 5.13419 6.0511 3.99911 6.0511C2.86403 6.0511 1.94847 5.13533 1.94847 4C1.94847 2.86467 2.86403 1.9489 3.99911 1.9489ZM3.99911 5.33348C4.73263 5.33348 5.33229 4.73547 5.33229 4C5.33229 3.26453 4.73441 2.66652 3.99911 2.66652C3.2638 2.66652 2.66592 3.26453 2.66592 4C2.66592 4.73547 3.26559 5.33348 3.99911 5.33348ZM1.38628 1.865C1.38628 2.13098 1.60045 2.34341 1.86458 2.34341C2.13051 2.34341 2.34289 2.1292 2.34289 1.865C2.34289 1.6008 2.12872 1.38659 1.86458 1.38659C1.60045 1.38659 1.38628 1.6008 1.38628 1.865ZM0.0281086 2.35055C0.0584488 1.7097 0.204796 1.14203 0.674177 0.674328C1.14177 0.206627 1.70931 0.0602477 2.35003 0.0281156C3.01037 -0.00937186 4.98963 -0.00937186 5.64997 0.0281156C6.2889 0.0584626 6.85644 0.204842 7.32582 0.672543C7.7952 1.14024 7.93977 1.70791 7.97189 2.34877C8.00937 3.00926 8.00937 4.98895 7.97189 5.64945C7.94155 6.2903 7.7952 6.85797 7.32582 7.32567C6.85644 7.79337 6.29069 7.93975 5.64997 7.97188C4.98963 8.00937 3.01037 8.00937 2.35003 7.97188C1.70931 7.94154 1.14177 7.79516 0.674177 7.32567C0.206581 6.85797 0.0602336 6.2903 0.0281086 5.64945C-0.0093708 4.98895 -0.0093708 3.01105 0.0281086 2.35055ZM0.881205 6.35814C1.02041 6.70802 1.2899 6.97757 1.64149 7.1186C2.16799 7.32746 3.41729 7.27926 3.99911 7.27926C4.58093 7.27926 5.83201 7.32567 6.35672 7.1186C6.70653 6.97936 6.97602 6.70981 7.11701 6.35814C7.32582 5.83153 7.27764 4.58195 7.27764 4C7.27764 3.41805 7.32404 2.16669 7.11701 1.64186C6.9778 1.29198 6.70831 1.02243 6.35672 0.881401C5.83023 0.672543 4.58093 0.720741 3.99911 0.720741C3.41729 0.720741 2.1662 0.674328 1.64149 0.881401C1.29169 1.02064 1.0222 1.29019 0.881205 1.64186C0.672392 2.16847 0.72058 3.41805 0.72058 4C0.72058 4.58195 0.672392 5.83331 0.881205 6.35814Z" fill="white"/>
</svg>
